<?xml version="1.0" standalone="no"?>
<!DOCTYPE svg PUBLIC "-//W3C//DTD SVG 20010904//EN"
 "http://www.w3.org/TR/2001/REC-SVG-20010904/DTD/svg10.dtd">
<svg version="1.0" xmlns="http://www.w3.org/2000/svg"
 width="400.000000pt" height="400.000000pt" viewBox="0 0 400.000000 400.000000"
 preserveAspectRatio="xMidYMid meet">
<metadata>
Created by potrace 1.11, written by Peter Selinger 2001-2013
</metadata>
<g transform="translate(0.000000,400.000000) scale(0.100000,-0.100000)"
fill="#000000" stroke="none">
<path d="M3067 2464 c-1 -1 -27 -5 -58 -8 -60 -7 -73 -9 -155 -26 -52 -11
-125 -37 -157 -56 -9 -5 -63 -91 -120 -190 l-102 -179 -105 -1 c-120 0 -187
-9 -275 -33 -21 -6 -42 -8 -47 -5 -4 3 -8 0 -8 -5 0 -6 -3 -10 -7 -9 -12 4
-195 -63 -223 -81 -14 -10 -37 -22 -52 -29 -16 -6 -28 -17 -28 -23 0 -6 -6 -9
-14 -6 -8 3 -19 -5 -26 -19 -8 -13 -17 -24 -22 -24 -5 0 -6 -5 -2 -12 5 -7 2
-9 -8 -6 -10 4 -14 0 -12 -15 1 -12 3 -24 4 -27 1 -3 2 -8 1 -12 0 -5 4 -8 10
-8 5 0 7 -5 3 -12 -4 -7 -3 -8 4 -4 6 4 16 -4 23 -16 7 -13 29 -40 50 -60 21
-21 36 -38 34 -38 -2 0 7 -11 21 -25 14 -14 30 -25 36 -25 6 0 9 -3 5 -6 -7
-7 17 -34 30 -34 4 0 23 -14 41 -31 17 -16 32 -27 32 -24 0 4 7 -1 16 -9 8 -9
22 -16 30 -16 8 0 14 -5 14 -11 0 -5 4 -8 9 -4 5 3 15 0 23 -7 7 -7 22 -15 33
-16 49 -9 47 -15 -63 -202 -249 -427 -320 -493 -541 -501 -68 -3 -80 -13 -61
-49 12 -23 12 -23 105 -5 17 3 46 10 65 15 124 31 443 52 794 52 345 0 520
-16 638 -58 47 -16 58 -28 58 -61 0 -42 18 -23 39 40 31 92 31 116 1 138 -14
11 -45 22 -70 25 -87 12 -380 7 -560 -11 -19 -2 -82 -6 -140 -10 -284 -18
-342 -23 -522 -40 -93 -9 -89 6 18 75 156 101 253 209 379 424 l67 114 84 -2
c46 0 84 1 84 4 0 3 12 5 28 6 43 1 139 21 157 34 6 3 29 12 53 20 23 7 42 17
42 22 0 4 9 8 20 8 11 0 20 5 20 12 0 6 3 9 6 5 3 -3 14 2 23 11 33 31 61 52
70 52 6 0 13 9 16 20 4 11 11 18 16 15 5 -4 9 -3 9 2 0 4 20 31 44 58 25 27
43 51 41 53 -3 3 23 37 53 68 10 10 10 14 1 14 -8 0 -8 4 -2 13 16 20 24 49
12 41 -7 -4 -10 -1 -7 7 8 22 -63 85 -138 122 -80 41 -205 87 -234 87 -37 0
242 398 305 436 33 20 143 27 185 12 19 -7 27 -5 37 8 22 30 -2 45 -69 42 -33
-2 -60 -3 -61 -4z"/>
</g>
</svg>
